nColumns=19
nRows=24
DataType=double
version=3
OpenSimVersion=4.1
endheader
time	ground_force_calcn_l_vx	ground_force_calcn_l_vy	ground_force_calcn_l_vz	ground_force_calcn_l_px	ground_force_calcn_l_py	ground_force_calcn_l_pz	ground_force_calcn_l_mx	ground_force_calcn_l_my	ground_force_calcn_l_mz	ground_force_calcn_r_vx	ground_force_calcn_r_vy	ground_force_calcn_r_vz	ground_force_calcn_r_px	ground_force_calcn_r_py	ground_force_calcn_r_pz	ground_force_calcn_r_mx	ground_force_calcn_r_my	ground_force_calcn_r_mz
8.4325	-2.82485	40.9005	4.57213	-0.323	-3.5662e-17	0.273269	-0.0451081	0.653111	0.073009	-21.7622	703.797	68.0034	-0.162266	-1.78016e-17	-0.116928	-0.433291	14.0128	1.35396
8.4425	-2.29869	37.2369	4.91665	-0.322427	-3.55325e-17	0.274288	-0.0414088	0.67079	0.0885691	-20.5042	701.078	66.918	-0.163356	-1.79173e-17	-0.117003	-0.42347	14.4792	1.38204
8.45249	-1.78175	33.7903	5.02186	-0.321941	-3.54135e-17	0.27516	-0.0355478	0.674153	0.100191	-19.2461	696.938	65.6647	-0.164476	-1.80365e-17	-0.117079	-0.411978	14.9185	1.4056
8.46248	-1.2812	30.3742	4.91464	-0.321626	-3.53105e-17	0.275888	-0.0283282	0.671593	0.108666	-17.9826	691.711	64.2376	-0.165639	-1.81612e-17	-0.11715	-0.398462	15.327	1.42338
8.47247	-0.83258	26.8634	4.63236	-0.321479	-3.52258e-17	0.276499	-0.0202465	0.653257	0.112649	-16.7397	685.71	62.6477	-0.166841	-1.82906e-17	-0.117222	-0.383587	15.713	1.43556
8.48246	-0.456376	23.181	4.21831	-0.321499	-3.51594e-17	0.277017	-0.0120651	0.612832	0.111519	-15.5171	679.186	60.9303	-0.168057	-1.84223e-17	-0.117285	-0.367393	16.0808	1.44262
8.49245	-0.149508	19.3105	3.68452	-0.321731	-3.51097e-17	0.277483	-0.0043026	0.555727	0.106035	-14.2885	672.357	59.121	-0.169275	-1.85547e-17	-0.117332	-0.349271	16.4352	1.44516
8.50244	0	0	0	0	-1.86878e-17	0	0	0	0	-13.0745	665.452	57.2537	-0.170494	-1.86878e-17	-0.117363	-0.32973	16.7823	1.4439
8.51243	0	0	0	0	-1.88193e-17	0	0	0	0	-11.9318	658.691	55.358	-0.171695	-1.88193e-17	-0.117385	-0.310309	17.1305	1.43969
8.52242	0	0	0	0	-1.89464e-17	0	0	0	0	-10.8829	652.266	53.4864	-0.172851	-1.89464e-17	-0.117399	-0.291578	17.4757	1.43302
8.53242	0	0	0	0	-1.90668e-17	0	0	0	0	-9.9553	646.386	51.6879	-0.173942	-1.90668e-17	-0.117411	-0.274285	17.809	1.42409
8.54241	1.79232	4.1125	2.72924	-0.346979	-3.5416e-17	0.348878	0.0755665	0.173388	0.115069	-9.19321	641.224	49.9954	-0.174967	-1.91803e-17	-0.117446	-0.260106	18.1423	1.41453
8.5524	2.85697	6.80117	4.27727	-0.34448	-3.5416e-17	0.347523	0.115752	0.275553	0.173296	-8.60884	636.879	48.4582	-0.175935	-1.92877e-17	-0.11751	-0.249631	18.4676	1.40514
8.56239	4.06136	10.0573	5.96463	-0.341896	-3.54161e-17	0.346094	0.156797	0.38828	0.230276	-8.17999	633.41	47.1179	-0.176838	-1.93882e-17	-0.117599	-0.242432	18.7725	1.39644
8.57238	5.31265	13.7397	7.62851	-0.339178	-3.54161e-17	0.344556	0.193083	0.499357	0.277252	-7.92383	630.843	45.9811	-0.177687	-1.94827e-17	-0.117729	-0.239432	19.062	1.3894
8.58237	6.47749	17.6071	9.04667	-0.336243	-3.5416e-17	0.34285	0.217394	0.59092	0.303619	-7.84283	629.16	45.0405	-0.178468	-1.95696e-17	-0.117906	-0.241112	19.3423	1.38468
8.59236	7.48873	21.4924	10.0793	-0.333261	-3.5416e-17	0.341099	0.227742	0.653613	0.306524	-7.91851	628.316	44.2731	-0.17916	-1.96466e-17	-0.118121	-0.247165	19.612	1.38192
8.60235	8.28225	25.2867	10.6896	-0.330311	-3.54159e-17	0.339267	0.22163	0.676664	0.286049	-8.17049	628.219	43.6595	-0.179777	-1.97153e-17	-0.118365	-0.258301	19.8605	1.38025
8.61234	8.82289	28.9212	10.8868	-0.327487	-3.54158e-17	0.337381	0.198987	0.652276	0.245536	-8.60997	628.75	43.1778	-0.180332	-1.97774e-17	-0.118623	-0.274942	20.0778	1.37879
8.62234	9.15039	32.3194	10.7105	-0.325072	-3.54156e-17	0.335691	0.167778	0.592594	0.196383	-9.21523	629.788	42.7914	-0.180821	-1.98326e-17	-0.118884	-0.296331	20.2519	1.37603
8.63233	9.28909	35.4019	10.2147	-0.323203	-3.54154e-17	0.334326	0.135534	0.51654	0.14904	-9.96961	631.207	42.4601	-0.181245	-1.9881e-17	-0.119147	-0.322016	20.3878	1.37145
8.64232	9.26315	38.092	9.48397	-0.321778	-3.54151e-17	0.333217	0.103716	0.4265	0.106188	-10.8649	632.862	42.1473	-0.181622	-1.99247e-17	-0.11941	-0.351698	20.4859	1.36432
8.65231	9.13504	40.335	8.63082	-0.320717	-3.54147e-17	0.332322	0.0738792	0.326207	0.0698013	-11.8419	634.595	41.8479	-0.181959	-1.99646e-17	-0.119656	-0.3831	20.5299	1.35383
8.6623	8.97492	42.0897	7.77801	-0.319966	-3.54142e-17	0.331621	0.0477526	0.223946	0.0413842	-12.8624	636.258	41.549	-0.182246	-1.99997e-17	-0.119882	-0.414551	20.5063	1.33911
